<svg xmlns="http://www.w3.org/2000/svg" viewBox="0 0 1600 500" width="1600" height="500" role="img" aria-label="Original anime-inspired awakened warrior banner">
  <defs>
    <linearGradient id="bg" x1="0" y1="0" x2="1" y2="1">
      <stop offset="0%" stop-color="#02040a"/>
      <stop offset="42%" stop-color="#0b1020"/>
      <stop offset="72%" stop-color="#10264a"/>
      <stop offset="100%" stop-color="#0ea5e9"/>
    </linearGradient>

    <radialGradient id="aura" cx="50%" cy="44%" r="34%">
      <stop offset="0%" stop-color="#ffffff" stop-opacity="0.98"/>
      <stop offset="28%" stop-color="#eefcff" stop-opacity="0.92"/>
      <stop offset="52%" stop-color="#9ae6ff" stop-opacity="0.55"/>
      <stop offset="100%" stop-color="#9ae6ff" stop-opacity="0"/>
    </radialGradient>

    <radialGradient id="smoke" cx="50%" cy="50%" r="50%">
      <stop offset="0%" stop-color="#e0f2fe" stop-opacity="0.28"/>
      <stop offset="55%" stop-color="#7dd3fc" stop-opacity="0.12"/>
      <stop offset="100%" stop-color="#0f172a" stop-opacity="0"/>
    </radialGradient>

    <filter id="softGlow" x="-40%" y="-40%" width="180%" height="180%">
      <feGaussianBlur stdDeviation="12" result="blur"/>
      <feColorMatrix in="blur" type="matrix" values="
        1 0 0 0 0
        0 1 0 0 0
        0 0 1 0 0
        0 0 0 0.85 0" result="glow"/>
      <feMerge>
        <feMergeNode in="glow"/>
        <feMergeNode in="SourceGraphic"/>
      </feMerge>
    </filter>

    <filter id="mist" x="-40%" y="-40%" width="180%" height="180%">
      <feGaussianBlur stdDeviation="22"/>
    </filter>

    <filter id="shadow" x="-30%" y="-30%" width="160%" height="160%">
      <feDropShadow dx="0" dy="18" stdDeviation="18" flood-color="#000814" flood-opacity="0.65"/>
    </filter>

    <linearGradient id="hair" x1="0" y1="0" x2="0.7" y2="1">
      <stop offset="0%" stop-color="#ffffff"/>
      <stop offset="45%" stop-color="#f8fdff"/>
      <stop offset="100%" stop-color="#cfefff"/>
    </linearGradient>

    <linearGradient id="figure" x1="0" y1="0" x2="0" y2="1">
      <stop offset="0%" stop-color="#0b1220"/>
      <stop offset="100%" stop-color="#02040a"/>
    </linearGradient>
  </defs>

  <rect width="1600" height="500" fill="url(#bg)"/>

  <g opacity="0.9" filter="url(#mist)">
    <ellipse cx="780" cy="265" rx="430" ry="150" fill="url(#smoke)">
      <animate attributeName="cx" values="760;800;760" dur="8s" repeatCount="indefinite"/>
    </ellipse>
    <ellipse cx="1080" cy="205" rx="250" ry="95" fill="#93c5fd" opacity="0.12">
      <animate attributeName="cy" values="200;212;200" dur="6s" repeatCount="indefinite"/>
    </ellipse>
    <ellipse cx="520" cy="325" rx="280" ry="110" fill="#e0f2fe" opacity="0.08">
      <animate attributeName="cy" values="330;320;330" dur="7s" repeatCount="indefinite"/>
    </ellipse>
  </g>

  <g opacity="0.35">
    <path d="M0 365 C160 310, 290 390, 430 340 S690 300, 820 355 S1090 405, 1260 345 S1460 280, 1600 330 L1600 500 L0 500 Z" fill="#050816"/>
    <path d="M0 390 C170 360, 340 430, 500 382 S760 340, 915 392 S1170 445, 1345 378 S1485 330, 1600 370 L1600 500 L0 500 Z" fill="#0a1020" opacity="0.8"/>
  </g>

  <g filter="url(#softGlow)">
    <circle cx="800" cy="236" r="182" fill="url(#aura)">
      <animate attributeName="r" values="170;190;170" dur="4.5s" repeatCount="indefinite"/>
    </circle>
    <circle cx="800" cy="236" r="118" fill="none" stroke="#f8fdff" stroke-opacity="0.38" stroke-width="3">
      <animate attributeName="stroke-opacity" values="0.25;0.55;0.25" dur="3.4s" repeatCount="indefinite"/>
    </circle>
  </g>

  <g filter="url(#shadow)">
    <path d="M804 140
             C845 154, 874 188, 873 228
             C872 274, 845 296, 823 325
             C813 338, 807 359, 806 386
             C805 401, 795 406, 785 406
             C772 406, 765 399, 763 385
             C761 360, 754 338, 742 324
             C716 294, 686 274, 684 228
             C682 188, 713 154, 754 140
             C772 133, 787 133, 804 140 Z"
          fill="url(#figure)"/>

    <path d="M705 166
             C725 131, 755 104, 800 97
             C847 103, 876 132, 895 169
             C858 162, 833 170, 800 173
             C769 170, 743 163, 705 166 Z"
          fill="url(#hair)"/>

    <path d="M682 155 C648 140, 621 146, 591 165" fill="none" stroke="#f8fdff" stroke-opacity="0.85" stroke-width="12" stroke-linecap="round">
      <animate attributeName="d" values="
        M682 155 C648 140, 621 146, 591 165;
        M682 150 C653 133, 620 146, 592 169;
        M682 155 C648 140, 621 146, 591 165" dur="2.8s" repeatCount="indefinite"/>
    </path>
    <path d="M920 154 C955 140, 982 146, 1013 165" fill="none" stroke="#f8fdff" stroke-opacity="0.82" stroke-width="12" stroke-linecap="round">
      <animate attributeName="d" values="
        M920 154 C955 140, 982 146, 1013 165;
        M920 150 C952 133, 984 146, 1014 169;
        M920 154 C955 140, 982 146, 1013 165" dur="3s" repeatCount="indefinite"/>
    </path>

    <ellipse cx="772" cy="223" rx="15" ry="6" fill="#e0f2fe"/>
    <ellipse cx="828" cy="223" rx="15" ry="6" fill="#e0f2fe"/>
    <path d="M785 257 C796 268, 804 268, 815 257" fill="none" stroke="#f8fdff" stroke-width="4" stroke-linecap="round"/>
    <path d="M754 275 C777 301, 822 301, 846 275" fill="none" stroke="#c8f5ff" stroke-opacity="0.75" stroke-width="5" stroke-linecap="round"/>
  </g>

  <g opacity="0.95" filter="url(#softGlow)">
    <path d="M350 132 C305 206, 288 286, 322 374" fill="none" stroke="#ffffff" stroke-width="4" stroke-linecap="round" stroke-dasharray="12 22"/>
    <path d="M1248 116 C1298 199, 1316 287, 1284 382" fill="none" stroke="#ffffff" stroke-width="4" stroke-linecap="round" stroke-dasharray="10 20"/>

    <path d="M628 70 L595 154 L648 154 L614 232" fill="none" stroke="#f8fdff" stroke-width="7" stroke-linejoin="round" stroke-linecap="round">
      <animate attributeName="opacity" values="0.25;1;0.35" dur="1.8s" repeatCount="indefinite"/>
    </path>
    <path d="M1012 64 L1048 146 L993 147 L1036 232" fill="none" stroke="#f8fdff" stroke-width="7" stroke-linejoin="round" stroke-linecap="round">
      <animate attributeName="opacity" values="0.35;1;0.25" dur="1.7s" repeatCount="indefinite"/>
    </path>
    <path d="M800 42 L770 118 L829 118 L790 202" fill="none" stroke="#ffffff" stroke-width="8" stroke-linejoin="round" stroke-linecap="round">
      <animateTransform attributeName="transform" type="translate" values="0 0;0 6;0 0" dur="2.2s" repeatCount="indefinite"/>
    </path>
  </g>

  <g opacity="0.85">
    <circle cx="192" cy="118" r="7" fill="#dff6ff"/>
    <circle cx="258" cy="80" r="4" fill="#dff6ff"/>
    <circle cx="1418" cy="96" r="6" fill="#dff6ff"/>
    <circle cx="1328" cy="174" r="4" fill="#dff6ff"/>
    <circle cx="1154" cy="72" r="5" fill="#dff6ff"/>
    <circle cx="460" cy="78" r="4" fill="#dff6ff"/>
    <circle cx="126" cy="240" r="6" fill="#dff6ff"/>
    <circle cx="1496" cy="248" r="5" fill="#dff6ff"/>
  </g>

  <g opacity="0.55" filter="url(#softGlow)">
    <path d="M130 335 C255 276, 380 312, 482 255" fill="none" stroke="#67e8f9" stroke-width="2"/>
    <path d="M1120 350 C1218 292, 1320 316, 1490 250" fill="none" stroke="#93c5fd" stroke-width="2"/>
    <path d="M480 392 C590 344, 688 356, 812 314" fill="none" stroke="#ffffff" stroke-width="2"/>
    <path d="M780 420 C880 370, 986 370, 1100 320" fill="none" stroke="#67e8f9" stroke-width="2"/>
  </g>
</svg>
